<svg width="786" height="565" viewBox="0 0 786 565" fill="none" xmlns="http://www.w3.org/2000/svg">
<path opacity="0.1" fill-rule="evenodd" clip-rule="evenodd" d="M404.462 127.925L408.372 129.172C408.663 129.255 408.913 129.338 409.204 129.421L409.454 129.504L409.703 129.587L424.722 135.198C432.169 138.107 435.622 139.894 441.904 151.032L497.444 251.854C499.483 255.719 501.854 259.002 506.93 261.787L614.224 320.717C616.72 322.089 618.176 323.294 619.175 325.247L623.585 334.058C624.5 336.094 624.375 337.507 622.836 338.172L627.662 340.749V340.832L627.87 340.749L654.454 402.048C659.113 411.648 657.657 417.882 647.756 420.875L386.947 499.13C379.624 501.333 372.51 499.13 363.899 495.016L52.2918 344.448C43.5136 340.208 37.7309 333.185 33.6954 326.826L1.037 277.787H1.07852C-0.127968 275.958 -0.419174 274.13 0.704108 272.841C22.4625 248.114 46.9251 222.222 67.8514 200.944L64.8144 193.879C60.0716 182.908 62.9007 174.97 75.548 172.31C84.8255 170.107 94.1445 167.946 103.422 165.744C108.706 160.715 112.699 157.099 114.988 155.188C118.191 152.569 120.521 151.447 122.559 150.741C124.016 150.118 125.305 149.702 127.177 149.245L178.349 136.902L175.853 136.071C175.478 135.946 175.146 135.78 174.813 135.613C167.74 136.985 160.668 138.232 153.554 139.312C144.027 140.725 135.581 133.91 131.171 126.72L108.581 85.6179C106.126 81.1711 105.835 77.8463 108.581 74.7294C109.912 73.2333 113.115 71.9034 117.442 70.4488C134.749 64.6721 170.819 59.4357 182.301 58.1889C193.076 56.9837 200.232 61.6799 205.641 68.4125C207.471 70.6982 209.135 73.5242 210.55 76.2255L342.348 111.925C345.968 111.218 349.67 111.509 353.415 112.59L406.084 128.257C405.543 128.091 404.961 127.967 404.378 127.842L404.462 127.925Z" fill="#231F20"/>
<path fill-rule="evenodd" clip-rule="evenodd" d="M664.938 86.9609L672.297 88.4161L678.409 91.4928L675.748 93.9459L361.3 175.063L350.864 184.21L346.706 197.515L348.785 388.604L352.111 395.672L438.717 459.784L450.317 460.74L781.313 357.088L785.803 361.329L776.698 372.804L599.121 427.312L449.735 475.833L434.393 473.754L341.426 402.823L338.931 388.312L335.231 195.768L340.594 176.269L353.483 165.916L664.938 86.9609Z" fill="#231F20"/>
<path fill-rule="evenodd" clip-rule="evenodd" d="M507.361 28.8775C507.361 24.1377 507.527 17.9012 506.529 13.3277C504.658 4.67961 499.96 -1.26594 488.568 0.230838C476.469 1.85235 437.677 8.54627 417.346 15.9054C412.274 17.7348 408.365 19.4395 406.245 21.3521C401.838 25.3435 400.424 29.5843 400.549 35.2804L401.672 87.7924C402.295 96.981 407.16 105.712 417.429 103.883C441.918 99.5588 467.031 92.657 491.811 87.0856L507.402 28.8775H507.361Z" fill="#231F20"/>
<path fill-rule="evenodd" clip-rule="evenodd" d="M501.581 20.978C497.548 19.4396 494.18 18.0676 490.147 19.0238L450.15 28.6698C442.125 31.0812 439.34 35.821 439.298 41.8082V91.8255C439.298 94.0291 439.007 98.6442 441.377 99.7668L443.456 100.806L385.83 116.606C383.585 117.271 382.046 117.811 380.175 118.643L393.73 128.871L624.317 70.4964L501.581 20.9364V20.978Z" fill="#58595B"/>
<path fill-rule="evenodd" clip-rule="evenodd" d="M382.172 118.975L382.255 117.936C379.386 118.85 376.268 120.056 370.571 124.255C353.608 136.729 266.961 208.824 194.783 274.64C192.746 276.511 192.164 279.338 192.704 281.999L208.337 314.554L267.003 359L296.148 361.537L314.733 206.287L348.619 162.215L395.726 130.201L394.769 128.205L382.13 118.975H382.172Z" fill="#414042"/>
<path fill-rule="evenodd" clip-rule="evenodd" d="M631.136 69.7893C627.851 68.3757 624.234 68.0015 620.159 68.9994C520.54 93.7794 421.212 119.474 322.175 146.084C308.122 149.534 301.137 159.638 300.14 173.691L288.082 334.387C287.75 343.7 287.583 354.011 277.438 346.236L192.496 280.918L199.481 343.575C200.23 351.683 202.308 360.663 208.878 366.11L441.544 558.488C447.947 563.81 453.934 566.554 462.415 563.727L449.526 537.907L442.916 471.799L352.069 404.32C344.586 398.665 342.798 393.717 342.839 384.695L340.719 195.311C340.553 183.461 343.796 173.608 360.052 169.284C461.792 142.591 563.531 115.898 665.229 89.2059C668.597 88.3328 672.546 88.4991 675.623 89.7464L631.177 69.7062L631.136 69.7893Z" fill="#6D6E71"/>
<path fill-rule="evenodd" clip-rule="evenodd" d="M446.699 550.796L442.541 471.758L785.969 361.37L780.481 439.702C780.106 451.967 775.408 459.95 763.933 463.734L462.373 563.727C454.765 566.18 447.281 560.359 446.657 550.796H446.699Z" fill="#58595B"/>
<path fill-rule="evenodd" clip-rule="evenodd" d="M459.963 512.213L772.706 410.265L771.126 437.997C771.251 440.825 769.339 442.488 767.384 443.195L467.031 544.809C460.586 546.971 460.462 546.431 460.42 540.194L460.004 512.254L459.963 512.213Z" fill="#231F20"/>
<path fill-rule="evenodd" clip-rule="evenodd" d="M690.509 98.6442L678.035 91.285C675.25 89.7051 669.762 90.4119 666.685 91.0356L362.963 171.737C351.114 175.562 343.63 179.179 343.672 193.523L345.792 387.564C346.125 392.179 346.582 395.713 351.53 399.58L438.468 463.484C442.916 466.27 445.453 466.603 451.772 464.648L781.978 358.169C784.099 357.421 785.055 355.508 785.222 352.764L785.429 341.538C785.471 339.044 784.639 337.505 782.852 335.759L706.474 260.421C702.899 256.887 702.192 252.688 702.192 247.74L699.448 118.892C698.99 104.631 696.496 102.345 690.55 98.6442H690.509Z" fill="#FFF7E7"/>
<path fill-rule="evenodd" clip-rule="evenodd" d="M689.012 97.7295L678.035 91.2434C675.25 89.6635 669.762 90.3703 666.685 90.994L362.963 171.695C351.114 175.52 343.63 179.138 343.672 193.482L345.792 387.523C346.125 392.138 346.582 395.672 351.53 399.538L438.468 463.443C442.916 466.228 445.453 466.561 451.772 464.607L781.978 358.128C784.099 357.379 785.055 355.467 785.222 352.723L785.429 341.497C785.429 339.127 784.723 337.63 783.101 335.925L449.485 442.197C444.704 443.735 443.124 443.693 440.006 441.24L363.878 364.738C359.18 359.915 357.808 356.09 357.641 348.398L356.477 202.338C356.394 189.449 359.637 185.79 368.368 182.796L680.572 98.561C683.815 97.7294 686.393 97.4384 689.053 97.6463L689.012 97.7295Z" fill="#E2DDC7"/>
<path fill-rule="evenodd" clip-rule="evenodd" d="M450.317 216.016L383.502 234.31C379.22 235.766 376.725 238.427 376.517 242.626V265.202C376.226 269.942 378.222 272.104 383.086 270.566L452.437 251.315C457.219 250.068 458.466 247.532 458.507 243.208V221.255C458.507 215.351 455.805 214.437 450.275 216.058L450.317 216.016Z" fill="#58595B"/>
<path fill-rule="evenodd" clip-rule="evenodd" d="M423.915 270.358C424.622 270.358 425.453 270.483 426.368 270.691L437.677 275.139C438.841 275.721 439.839 276.303 440.67 276.802C448.321 281.501 452.146 292.56 449.609 305.491C446.2 322.662 432.812 336.59 419.674 336.59C417.179 336.59 414.851 336.091 412.772 335.135L401.338 328.815C393.272 323.161 392.274 310.314 394.021 301.458C397.43 284.286 410.818 270.358 423.956 270.358H423.915Z" fill="#E2DDC7"/>
<path fill-rule="evenodd" clip-rule="evenodd" d="M560.746 303.911C585.859 328.94 610.805 354.136 635.834 379.249L636.001 379.457C637.996 381.66 639.244 383.739 640.075 386.026C640.865 388.313 641.156 390.599 641.156 393.219V403.572L630.429 407.022V393.219C630.429 391.639 630.305 390.433 630.014 389.477C629.723 388.604 629.182 387.772 628.309 386.774L551.807 310.023C549.894 308.11 548.439 306.697 547.4 305.325H547.982C552.264 305.325 556.547 304.826 560.788 303.869L560.746 303.911Z" fill="#00A651"/>
<path fill-rule="evenodd" clip-rule="evenodd" d="M548.688 305.324C549.062 305.699 549.436 306.073 549.852 306.489L626.312 382.242L626.52 382.45C628.516 384.654 629.764 386.733 630.595 389.019C631.385 391.306 631.676 393.551 631.676 396.212V406.606L620.949 410.057V396.212C620.949 394.632 620.824 393.426 620.533 392.47C620.242 391.639 619.702 390.766 618.829 389.768L542.451 314.097C538.917 310.646 536.755 307.653 535.508 304.285L535.3 303.703C539.25 304.742 543.491 305.283 547.981 305.283H548.73L548.688 305.324Z" fill="#FFF200"/>
<path fill-rule="evenodd" clip-rule="evenodd" d="M535.425 303.828C536.007 306.115 537.047 308.193 538.834 310.023L615.96 385.485L616.168 385.735C618.164 387.938 619.411 390.017 620.243 392.304C621.033 394.591 621.323 396.878 621.323 399.497V409.974L610.597 413.425V399.497C610.597 397.917 610.472 396.711 610.181 395.755C609.89 394.923 609.349 394.05 608.476 393.052L531.35 317.548C527.65 313.848 525.779 309.649 524.864 305.2C524.449 303.204 524.241 301.167 524.116 299.13C527.608 301.167 531.392 302.747 535.467 303.786L535.425 303.828Z" fill="#ED1C24"/>
<path fill-rule="evenodd" clip-rule="evenodd" d="M641.945 212.4C654.211 212.4 662.318 224.124 659.99 238.552C657.703 252.979 645.854 264.704 633.588 264.704C621.323 264.704 613.257 252.979 615.544 238.552C617.872 224.124 629.68 212.4 641.945 212.4Z" fill="#231F20"/>
<path fill-rule="evenodd" clip-rule="evenodd" d="M642.736 216.266C645.397 216.391 647.767 217.181 649.763 218.511L667.599 231.358C673.753 234.851 676.954 243 675.083 252.355C672.672 264.496 662.61 273.934 652.59 273.518C649.763 273.393 647.268 272.478 645.148 271.023L626.937 257.968C621.282 254.268 618.413 246.368 620.201 237.429C622.613 225.288 632.674 215.85 642.694 216.266H642.736Z" fill="#58595B"/>
<path fill-rule="evenodd" clip-rule="evenodd" d="M661.362 229.612C671.383 230.07 677.495 240.256 675.083 252.355C672.672 264.495 662.61 273.975 652.59 273.518C642.57 273.06 636.458 262.874 638.869 250.775C641.281 238.634 651.342 229.155 661.362 229.612Z" fill="#414042"/>
<path fill-rule="evenodd" clip-rule="evenodd" d="M431.939 274.349C445.077 274.349 452.977 288.278 449.568 305.449C446.158 322.62 432.771 336.549 419.632 336.549C406.494 336.549 398.594 322.62 402.003 305.449C405.413 288.278 418.801 274.349 431.939 274.349Z" fill="#FFF7E7"/>
<path fill-rule="evenodd" clip-rule="evenodd" d="M431.773 281.792C441.419 282.54 446.409 293.683 442.916 306.613C439.424 319.544 428.738 329.439 419.051 328.691C409.405 327.943 404.415 316.8 407.908 303.869C411.4 290.939 422.086 281.043 431.773 281.792Z" fill="#ED1C24"/>
<path fill-rule="evenodd" clip-rule="evenodd" d="M681.153 113.529L681.694 110.369L686.517 109.122C689.386 108.332 691.922 109.829 691.922 112.905V181.549C691.839 185.582 691.672 187.952 688.221 189.574C672.006 197.099 631.011 207.992 615.544 209.863L611.47 201.132L681.195 113.529H681.153Z" fill="#E2DDC7"/>
<path fill-rule="evenodd" clip-rule="evenodd" d="M614.505 133.777V201.589C636.333 197.972 658.951 191.777 678.783 183.669C681.444 182.588 681.694 180.468 682.192 177.682C685.352 160.968 684.77 135.648 684.271 118.227C684.188 114.693 683.44 111.741 682.109 110.286L619.827 125.919C615.877 126.958 614.505 129.162 614.505 133.735V133.777Z" fill="#939598"/>
<path opacity="0.15" fill-rule="evenodd" clip-rule="evenodd" d="M614.505 150.865V168.827L653.296 117.562L636.541 121.761L614.547 150.865H614.505ZM614.505 180.926L664.605 114.693L681.361 110.494L614.505 198.887V180.926ZM639.493 196.392L684.687 136.646C684.729 142.633 684.687 148.87 684.479 154.898L656.747 191.569C651.093 193.316 645.314 194.937 639.493 196.392Z" fill="white"/>
<path fill-rule="evenodd" clip-rule="evenodd" d="M554.967 137.685C565.777 137.685 575.256 140.762 582.948 146.208C584.32 147.165 585.651 148.246 586.898 149.368L612.967 171.321C627.186 184.293 633.34 206.869 627.394 232.523C618.081 272.769 582.491 305.366 547.898 305.366C538.627 305.366 530.394 303.037 523.451 298.838C514.47 293.433 505.365 288.278 496.259 283.039C493.723 281.625 491.312 280.004 489.067 278.174C473.184 264.994 466.074 240.838 472.477 213.272C482.165 171.529 519.044 137.685 554.925 137.685H554.967Z" fill="#414042"/>
<path fill-rule="evenodd" clip-rule="evenodd" d="M581.7 159.638C616.251 159.638 636.748 192.276 627.393 232.481C618.08 272.728 582.49 305.324 547.898 305.324C513.305 305.324 492.849 272.686 502.204 232.481C511.518 192.234 547.108 159.638 581.7 159.638Z" fill="#231F20"/>
<path fill-rule="evenodd" clip-rule="evenodd" d="M507.693 242.127C508.026 239.425 508.525 236.681 509.19 233.853C514.72 209.988 530.311 189.033 549.187 177.059C565.278 179.013 574.383 195.27 569.809 215.019C564.945 236.099 546.277 253.145 528.191 253.145C519.21 253.145 512.017 248.946 507.693 242.086V242.127Z" fill="#414042"/>
<path fill-rule="evenodd" clip-rule="evenodd" d="M508.4 237.637C508.649 236.389 508.899 235.142 509.19 233.853C514.512 210.861 529.147 190.613 547.108 178.431C554.592 184.044 558.001 194.895 555.091 207.368C550.85 225.579 534.76 240.381 519.085 240.381C515.052 240.381 511.435 239.383 508.4 237.637Z" fill="#647B98"/>
<path fill-rule="evenodd" clip-rule="evenodd" d="M440.297 36.4445C439.632 38.066 439.341 39.8538 439.341 41.7664V91.7838C439.341 93.9874 439.05 98.6024 441.42 99.725L443.498 100.764L510.271 82.7199C514.554 81.6805 519.21 78.8948 519.169 75.9428C519.169 74.446 517.09 72.6167 514.928 71.5772L440.297 36.4029V36.4445Z" fill="#414042"/>
<path opacity="0.15" fill-rule="evenodd" clip-rule="evenodd" d="M509.647 231.94C515.551 208.907 530.768 188.742 549.187 177.1C549.769 177.183 550.351 177.266 550.933 177.391L509.647 231.94ZM556.463 179.137L508.192 242.917C509.772 245.245 511.726 247.199 513.971 248.821L563.115 183.836C561.203 181.881 558.957 180.302 556.463 179.137ZM570.183 197.514L528.066 253.145H528.149C532.14 253.145 536.173 252.313 540.081 250.775L570.557 210.487C571.181 205.871 570.973 201.464 570.142 197.514H570.183Z" fill="white"/>
<path fill-rule="evenodd" clip-rule="evenodd" d="M582.782 164.087C586.69 164.087 590.39 164.503 593.924 165.334C604.901 167.87 613.881 174.232 620.076 183.171C626.23 192.027 629.639 203.46 629.639 216.308C629.639 222.087 628.932 228.157 627.477 234.435C623.028 253.519 612.385 270.816 598.706 283.289C584.944 295.887 568.105 303.662 551.474 303.662C547.566 303.662 543.865 303.246 540.331 302.414C529.355 299.878 520.374 293.517 514.179 284.578C508.026 275.722 504.616 264.288 504.616 251.441C504.616 245.661 505.323 239.591 506.778 233.313C511.227 214.229 521.871 196.933 535.55 184.46C549.312 171.862 566.151 164.087 582.782 164.087ZM592.843 170.116C589.683 169.367 586.316 168.993 582.782 168.993C567.398 168.993 551.723 176.269 538.876 188.077C525.904 199.926 515.801 216.308 511.56 234.435C510.188 240.339 509.523 246.035 509.523 251.482C509.523 263.332 512.641 273.768 518.212 281.792C523.742 289.733 531.683 295.346 541.412 297.633C544.572 298.381 547.94 298.755 551.474 298.755C566.857 298.755 582.532 291.479 595.38 279.671C608.352 267.822 618.455 251.441 622.696 233.313C624.068 227.409 624.733 221.713 624.733 216.266C624.733 204.458 621.615 193.981 616.043 185.915C610.514 177.974 602.572 172.361 592.843 170.074V170.116Z" fill="white"/>
<g opacity="0.1">
<path fill-rule="evenodd" clip-rule="evenodd" d="M404.462 127.925L408.372 129.172C408.663 129.255 408.913 129.338 409.204 129.421L409.454 129.504L409.703 129.587L424.722 135.198C432.169 138.107 435.622 139.894 441.904 151.032L497.444 251.854C499.483 255.719 501.854 259.002 506.93 261.787L614.224 320.717C616.72 322.089 618.176 323.294 619.175 325.247L623.585 334.058C624.5 336.094 624.375 337.507 622.836 338.172L627.662 340.749V340.832L627.87 340.749L654.454 402.048C659.113 411.648 657.657 417.882 647.756 420.875L386.947 499.13C379.624 501.333 372.51 499.13 363.899 495.016L52.2918 344.448C43.5136 340.208 37.7309 333.185 33.6954 326.826L1.037 277.787H1.07852C-0.127968 275.958 -0.419174 274.13 0.704108 272.841C22.4625 248.114 46.9251 222.222 67.8514 200.944L64.8144 193.879C60.0716 182.908 62.9007 174.97 75.548 172.31C84.8255 170.107 94.1445 167.946 103.422 165.744C108.706 160.715 112.699 157.099 114.988 155.188C118.191 152.569 120.521 151.447 122.559 150.741C124.016 150.118 125.305 149.702 127.177 149.245L178.349 136.902L175.853 136.071C175.478 135.946 175.146 135.78 174.813 135.613C167.74 136.985 160.668 138.232 153.554 139.312C144.027 140.725 135.581 133.91 131.171 126.72L108.581 85.6179C106.126 81.1711 105.835 77.8463 108.581 74.7294C109.912 73.2333 113.115 71.9034 117.442 70.4488C134.749 64.6721 170.819 59.4357 182.301 58.1889C193.076 56.9837 200.232 61.6799 205.641 68.4125C207.471 70.6982 209.135 73.5242 210.55 76.2255L342.348 111.925C345.968 111.218 349.67 111.509 353.415 112.59L406.084 128.257C405.543 128.091 404.961 127.967 404.378 127.842L404.462 127.925Z" fill="#0F183E" fill-opacity="0.37" style="mix-blend-mode:overlay"/>
<path fill-rule="evenodd" clip-rule="evenodd" d="M404.462 127.925L408.372 129.172C408.663 129.255 408.913 129.338 409.204 129.421L409.454 129.504L409.703 129.587L424.722 135.198C432.169 138.107 435.622 139.894 441.904 151.032L497.444 251.854C499.483 255.719 501.854 259.002 506.93 261.787L614.224 320.717C616.72 322.089 618.176 323.294 619.175 325.247L623.585 334.058C624.5 336.094 624.375 337.507 622.836 338.172L627.662 340.749V340.832L627.87 340.749L654.454 402.048C659.113 411.648 657.657 417.882 647.756 420.875L386.947 499.13C379.624 501.333 372.51 499.13 363.899 495.016L52.2918 344.448C43.5136 340.208 37.7309 333.185 33.6954 326.826L1.037 277.787H1.07852C-0.127968 275.958 -0.419174 274.13 0.704108 272.841C22.4625 248.114 46.9251 222.222 67.8514 200.944L64.8144 193.879C60.0716 182.908 62.9007 174.97 75.548 172.31C84.8255 170.107 94.1445 167.946 103.422 165.744C108.706 160.715 112.699 157.099 114.988 155.188C118.191 152.569 120.521 151.447 122.559 150.741C124.016 150.118 125.305 149.702 127.177 149.245L178.349 136.902L175.853 136.071C175.478 135.946 175.146 135.78 174.813 135.613C167.74 136.985 160.668 138.232 153.554 139.312C144.027 140.725 135.581 133.91 131.171 126.72L108.581 85.6179C106.126 81.1711 105.835 77.8463 108.581 74.7294C109.912 73.2333 113.115 71.9034 117.442 70.4488C134.749 64.6721 170.819 59.4357 182.301 58.1889C193.076 56.9837 200.232 61.6799 205.641 68.4125C207.471 70.6982 209.135 73.5242 210.55 76.2255L342.348 111.925C345.968 111.218 349.67 111.509 353.415 112.59L406.084 128.257C405.543 128.091 404.961 127.967 404.378 127.842L404.462 127.925Z" fill="#A130B7" fill-opacity="0.19" style="mix-blend-mode:overlay"/>
</g>
<path fill-rule="evenodd" clip-rule="evenodd" d="M664.938 86.9609L672.297 88.4161L678.409 91.4928L675.748 93.9459L361.3 175.063L350.864 184.21L346.706 197.515L348.785 388.604L352.111 395.672L438.717 459.784L450.317 460.74L781.313 357.088L785.803 361.329L776.698 372.804L599.121 427.312L449.735 475.833L434.393 473.754L341.426 402.823L338.931 388.312L335.231 195.768L340.594 176.269L353.483 165.916L664.938 86.9609Z" fill="#0F183E" fill-opacity="0.37" style="mix-blend-mode:overlay"/>
<path fill-rule="evenodd" clip-rule="evenodd" d="M664.938 86.9609L672.297 88.4161L678.409 91.4928L675.748 93.9459L361.3 175.063L350.864 184.21L346.706 197.515L348.785 388.604L352.111 395.672L438.717 459.784L450.317 460.74L781.313 357.088L785.803 361.329L776.698 372.804L599.121 427.312L449.735 475.833L434.393 473.754L341.426 402.823L338.931 388.312L335.231 195.768L340.594 176.269L353.483 165.916L664.938 86.9609Z" fill="#A130B7" fill-opacity="0.19" style="mix-blend-mode:overlay"/>
<path fill-rule="evenodd" clip-rule="evenodd" d="M507.361 28.8775C507.361 24.1377 507.527 17.9012 506.529 13.3277C504.658 4.67961 499.96 -1.26594 488.568 0.230838C476.469 1.85235 437.677 8.54627 417.346 15.9054C412.274 17.7348 408.365 19.4395 406.245 21.3521C401.838 25.3435 400.424 29.5843 400.549 35.2804L401.672 87.7924C402.295 96.981 407.16 105.712 417.429 103.883C441.918 99.5588 467.031 92.657 491.811 87.0856L507.402 28.8775H507.361Z" fill="#0F183E" fill-opacity="0.37" style="mix-blend-mode:overlay"/>
<path fill-rule="evenodd" clip-rule="evenodd" d="M507.361 28.8775C507.361 24.1377 507.527 17.9012 506.529 13.3277C504.658 4.67961 499.96 -1.26594 488.568 0.230838C476.469 1.85235 437.677 8.54627 417.346 15.9054C412.274 17.7348 408.365 19.4395 406.245 21.3521C401.838 25.3435 400.424 29.5843 400.549 35.2804L401.672 87.7924C402.295 96.981 407.16 105.712 417.429 103.883C441.918 99.5588 467.031 92.657 491.811 87.0856L507.402 28.8775H507.361Z" fill="#A130B7" fill-opacity="0.19" style="mix-blend-mode:overlay"/>
<path fill-rule="evenodd" clip-rule="evenodd" d="M501.581 20.978C497.548 19.4396 494.18 18.0676 490.147 19.0238L450.15 28.6698C442.125 31.0812 439.34 35.821 439.298 41.8082V91.8255C439.298 94.0291 439.007 98.6442 441.377 99.7668L443.456 100.806L385.83 116.606C383.585 117.271 382.046 117.811 380.175 118.643L393.73 128.871L624.317 70.4964L501.581 20.9364V20.978Z" fill="#0F183E" fill-opacity="0.37" style="mix-blend-mode:overlay"/>
<path fill-rule="evenodd" clip-rule="evenodd" d="M501.581 20.978C497.548 19.4396 494.18 18.0676 490.147 19.0238L450.15 28.6698C442.125 31.0812 439.34 35.821 439.298 41.8082V91.8255C439.298 94.0291 439.007 98.6442 441.377 99.7668L443.456 100.806L385.83 116.606C383.585 117.271 382.046 117.811 380.175 118.643L393.73 128.871L624.317 70.4964L501.581 20.9364V20.978Z" fill="#A130B7" fill-opacity="0.19" style="mix-blend-mode:overlay"/>
<path fill-rule="evenodd" clip-rule="evenodd" d="M382.172 118.975L382.255 117.936C379.386 118.85 376.268 120.056 370.571 124.255C353.608 136.729 266.961 208.824 194.783 274.64C192.746 276.511 192.164 279.338 192.704 281.999L208.337 314.554L267.003 359L296.148 361.537L314.733 206.287L348.619 162.215L395.726 130.201L394.769 128.205L382.13 118.975H382.172Z" fill="#0F183E" fill-opacity="0.37" style="mix-blend-mode:overlay"/>
<path fill-rule="evenodd" clip-rule="evenodd" d="M382.172 118.975L382.255 117.936C379.386 118.85 376.268 120.056 370.571 124.255C353.608 136.729 266.961 208.824 194.783 274.64C192.746 276.511 192.164 279.338 192.704 281.999L208.337 314.554L267.003 359L296.148 361.537L314.733 206.287L348.619 162.215L395.726 130.201L394.769 128.205L382.13 118.975H382.172Z" fill="#A130B7" fill-opacity="0.19" style="mix-blend-mode:overlay"/>
<path fill-rule="evenodd" clip-rule="evenodd" d="M631.136 69.7893C627.851 68.3757 624.234 68.0015 620.159 68.9994C520.54 93.7794 421.212 119.474 322.175 146.084C308.122 149.534 301.137 159.638 300.14 173.691L288.082 334.387C287.75 343.7 287.583 354.011 277.438 346.236L192.496 280.918L199.481 343.575C200.23 351.683 202.308 360.663 208.878 366.11L441.544 558.488C447.947 563.81 453.934 566.554 462.415 563.727L449.526 537.907L442.916 471.799L352.069 404.32C344.586 398.665 342.798 393.717 342.839 384.695L340.719 195.311C340.553 183.461 343.796 173.608 360.052 169.284C461.792 142.591 563.531 115.898 665.229 89.2059C668.597 88.3328 672.546 88.4991 675.623 89.7464L631.177 69.7062L631.136 69.7893Z" fill="#0F183E" fill-opacity="0.37" style="mix-blend-mode:overlay"/>
<path fill-rule="evenodd" clip-rule="evenodd" d="M631.136 69.7893C627.851 68.3757 624.234 68.0015 620.159 68.9994C520.54 93.7794 421.212 119.474 322.175 146.084C308.122 149.534 301.137 159.638 300.14 173.691L288.082 334.387C287.75 343.7 287.583 354.011 277.438 346.236L192.496 280.918L199.481 343.575C200.23 351.683 202.308 360.663 208.878 366.11L441.544 558.488C447.947 563.81 453.934 566.554 462.415 563.727L449.526 537.907L442.916 471.799L352.069 404.32C344.586 398.665 342.798 393.717 342.839 384.695L340.719 195.311C340.553 183.461 343.796 173.608 360.052 169.284C461.792 142.591 563.531 115.898 665.229 89.2059C668.597 88.3328 672.546 88.4991 675.623 89.7464L631.177 69.7062L631.136 69.7893Z" fill="#A130B7" fill-opacity="0.19" style="mix-blend-mode:overlay"/>
<path fill-rule="evenodd" clip-rule="evenodd" d="M446.699 550.796L442.541 471.758L785.969 361.37L780.481 439.702C780.106 451.967 775.408 459.95 763.933 463.734L462.373 563.727C454.765 566.18 447.281 560.359 446.657 550.796H446.699Z" fill="#0F183E" fill-opacity="0.37" style="mix-blend-mode:overlay"/>
<path fill-rule="evenodd" clip-rule="evenodd" d="M446.699 550.796L442.541 471.758L785.969 361.37L780.481 439.702C780.106 451.967 775.408 459.95 763.933 463.734L462.373 563.727C454.765 566.18 447.281 560.359 446.657 550.796H446.699Z" fill="#A130B7" fill-opacity="0.19" style="mix-blend-mode:overlay"/>
<path fill-rule="evenodd" clip-rule="evenodd" d="M459.963 512.213L772.706 410.265L771.126 437.997C771.251 440.825 769.339 442.488 767.384 443.195L467.031 544.809C460.586 546.971 460.462 546.431 460.42 540.194L460.004 512.254L459.963 512.213Z" fill="#0F183E" fill-opacity="0.37" style="mix-blend-mode:overlay"/>
<path fill-rule="evenodd" clip-rule="evenodd" d="M459.963 512.213L772.706 410.265L771.126 437.997C771.251 440.825 769.339 442.488 767.384 443.195L467.031 544.809C460.586 546.971 460.462 546.431 460.42 540.194L460.004 512.254L459.963 512.213Z" fill="#A130B7" fill-opacity="0.19" style="mix-blend-mode:overlay"/>
<path fill-rule="evenodd" clip-rule="evenodd" d="M690.509 98.6442L678.035 91.285C675.25 89.7051 669.762 90.4119 666.685 91.0356L362.963 171.737C351.114 175.562 343.63 179.179 343.672 193.523L345.792 387.564C346.125 392.179 346.582 395.713 351.53 399.58L438.468 463.484C442.916 466.27 445.453 466.603 451.772 464.648L781.978 358.169C784.099 357.421 785.055 355.508 785.222 352.764L785.429 341.538C785.471 339.044 784.639 337.505 782.852 335.759L706.474 260.421C702.899 256.887 702.192 252.688 702.192 247.74L699.448 118.892C698.99 104.631 696.496 102.345 690.55 98.6442H690.509Z" fill="#0F183E" fill-opacity="0.37" style="mix-blend-mode:overlay"/>
<path fill-rule="evenodd" clip-rule="evenodd" d="M690.509 98.6442L678.035 91.285C675.25 89.7051 669.762 90.4119 666.685 91.0356L362.963 171.737C351.114 175.562 343.63 179.179 343.672 193.523L345.792 387.564C346.125 392.179 346.582 395.713 351.53 399.58L438.468 463.484C442.916 466.27 445.453 466.603 451.772 464.648L781.978 358.169C784.099 357.421 785.055 355.508 785.222 352.764L785.429 341.538C785.471 339.044 784.639 337.505 782.852 335.759L706.474 260.421C702.899 256.887 702.192 252.688 702.192 247.74L699.448 118.892C698.99 104.631 696.496 102.345 690.55 98.6442H690.509Z" fill="#A130B7" fill-opacity="0.19" style="mix-blend-mode:overlay"/>
<path fill-rule="evenodd" clip-rule="evenodd" d="M689.012 97.7295L678.035 91.2434C675.25 89.6635 669.762 90.3703 666.685 90.994L362.963 171.695C351.114 175.52 343.63 179.138 343.672 193.482L345.792 387.523C346.125 392.138 346.582 395.672 351.53 399.538L438.468 463.443C442.916 466.228 445.453 466.561 451.772 464.607L781.978 358.128C784.099 357.379 785.055 355.467 785.222 352.723L785.429 341.497C785.429 339.127 784.723 337.63 783.101 335.925L449.485 442.197C444.704 443.735 443.124 443.693 440.006 441.24L363.878 364.738C359.18 359.915 357.808 356.09 357.641 348.398L356.477 202.338C356.394 189.449 359.637 185.79 368.368 182.796L680.572 98.561C683.815 97.7294 686.393 97.4384 689.053 97.6463L689.012 97.7295Z" fill="#0F183E" fill-opacity="0.37" style="mix-blend-mode:overlay"/>
<path fill-rule="evenodd" clip-rule="evenodd" d="M689.012 97.7295L678.035 91.2434C675.25 89.6635 669.762 90.3703 666.685 90.994L362.963 171.695C351.114 175.52 343.63 179.138 343.672 193.482L345.792 387.523C346.125 392.138 346.582 395.672 351.53 399.538L438.468 463.443C442.916 466.228 445.453 466.561 451.772 464.607L781.978 358.128C784.099 357.379 785.055 355.467 785.222 352.723L785.429 341.497C785.429 339.127 784.723 337.63 783.101 335.925L449.485 442.197C444.704 443.735 443.124 443.693 440.006 441.24L363.878 364.738C359.18 359.915 357.808 356.09 357.641 348.398L356.477 202.338C356.394 189.449 359.637 185.79 368.368 182.796L680.572 98.561C683.815 97.7294 686.393 97.4384 689.053 97.6463L689.012 97.7295Z" fill="#A130B7" fill-opacity="0.19" style="mix-blend-mode:overlay"/>
<path fill-rule="evenodd" clip-rule="evenodd" d="M450.317 216.016L383.502 234.31C379.22 235.766 376.725 238.427 376.517 242.626V265.202C376.226 269.942 378.222 272.104 383.086 270.566L452.437 251.315C457.219 250.068 458.466 247.532 458.507 243.208V221.255C458.507 215.351 455.805 214.437 450.275 216.058L450.317 216.016Z" fill="#0F183E" fill-opacity="0.37" style="mix-blend-mode:overlay"/>
<path fill-rule="evenodd" clip-rule="evenodd" d="M450.317 216.016L383.502 234.31C379.22 235.766 376.725 238.427 376.517 242.626V265.202C376.226 269.942 378.222 272.104 383.086 270.566L452.437 251.315C457.219 250.068 458.466 247.532 458.507 243.208V221.255C458.507 215.351 455.805 214.437 450.275 216.058L450.317 216.016Z" fill="#A130B7" fill-opacity="0.19" style="mix-blend-mode:overlay"/>
<path fill-rule="evenodd" clip-rule="evenodd" d="M423.915 270.358C424.622 270.358 425.453 270.483 426.368 270.691L437.677 275.139C438.841 275.721 439.839 276.303 440.67 276.802C448.321 281.501 452.146 292.56 449.609 305.491C446.2 322.662 432.812 336.59 419.674 336.59C417.179 336.59 414.851 336.091 412.772 335.135L401.338 328.815C393.272 323.161 392.274 310.314 394.021 301.458C397.43 284.286 410.818 270.358 423.956 270.358H423.915Z" fill="#0F183E" fill-opacity="0.37" style="mix-blend-mode:overlay"/>
<path fill-rule="evenodd" clip-rule="evenodd" d="M423.915 270.358C424.622 270.358 425.453 270.483 426.368 270.691L437.677 275.139C438.841 275.721 439.839 276.303 440.67 276.802C448.321 281.501 452.146 292.56 449.609 305.491C446.2 322.662 432.812 336.59 419.674 336.59C417.179 336.59 414.851 336.091 412.772 335.135L401.338 328.815C393.272 323.161 392.274 310.314 394.021 301.458C397.43 284.286 410.818 270.358 423.956 270.358H423.915Z" fill="#A130B7" fill-opacity="0.19" style="mix-blend-mode:overlay"/>
<path fill-rule="evenodd" clip-rule="evenodd" d="M560.746 303.911C585.859 328.94 610.805 354.136 635.834 379.249L636.001 379.457C637.996 381.66 639.244 383.739 640.075 386.026C640.865 388.313 641.156 390.599 641.156 393.219V403.572L630.429 407.022V393.219C630.429 391.639 630.305 390.433 630.014 389.477C629.723 388.604 629.182 387.772 628.309 386.774L551.807 310.023C549.894 308.11 548.439 306.697 547.4 305.325H547.982C552.264 305.325 556.547 304.826 560.788 303.869L560.746 303.911Z" fill="#0F183E" fill-opacity="0.37" style="mix-blend-mode:overlay"/>
<path fill-rule="evenodd" clip-rule="evenodd" d="M560.746 303.911C585.859 328.94 610.805 354.136 635.834 379.249L636.001 379.457C637.996 381.66 639.244 383.739 640.075 386.026C640.865 388.313 641.156 390.599 641.156 393.219V403.572L630.429 407.022V393.219C630.429 391.639 630.305 390.433 630.014 389.477C629.723 388.604 629.182 387.772 628.309 386.774L551.807 310.023C549.894 308.11 548.439 306.697 547.4 305.325H547.982C552.264 305.325 556.547 304.826 560.788 303.869L560.746 303.911Z" fill="#A130B7" fill-opacity="0.19" style="mix-blend-mode:overlay"/>
<path fill-rule="evenodd" clip-rule="evenodd" d="M548.688 305.324C549.062 305.699 549.436 306.073 549.852 306.489L626.312 382.242L626.52 382.45C628.516 384.654 629.764 386.733 630.595 389.019C631.385 391.306 631.676 393.551 631.676 396.212V406.606L620.949 410.057V396.212C620.949 394.632 620.824 393.426 620.533 392.47C620.242 391.639 619.702 390.766 618.829 389.768L542.451 314.097C538.917 310.646 536.755 307.653 535.508 304.285L535.3 303.703C539.25 304.742 543.491 305.283 547.981 305.283H548.73L548.688 305.324Z" fill="#0F183E" fill-opacity="0.37" style="mix-blend-mode:overlay"/>
<path fill-rule="evenodd" clip-rule="evenodd" d="M548.688 305.324C549.062 305.699 549.436 306.073 549.852 306.489L626.312 382.242L626.52 382.45C628.516 384.654 629.764 386.733 630.595 389.019C631.385 391.306 631.676 393.551 631.676 396.212V406.606L620.949 410.057V396.212C620.949 394.632 620.824 393.426 620.533 392.47C620.242 391.639 619.702 390.766 618.829 389.768L542.451 314.097C538.917 310.646 536.755 307.653 535.508 304.285L535.3 303.703C539.25 304.742 543.491 305.283 547.981 305.283H548.73L548.688 305.324Z" fill="#A130B7" fill-opacity="0.19" style="mix-blend-mode:overlay"/>
<path fill-rule="evenodd" clip-rule="evenodd" d="M535.425 303.828C536.007 306.115 537.047 308.193 538.834 310.023L615.96 385.485L616.168 385.735C618.164 387.938 619.411 390.017 620.243 392.304C621.033 394.591 621.323 396.878 621.323 399.497V409.974L610.597 413.425V399.497C610.597 397.917 610.472 396.711 610.181 395.755C609.89 394.923 609.349 394.05 608.476 393.052L531.35 317.548C527.65 313.848 525.779 309.649 524.864 305.2C524.449 303.204 524.241 301.167 524.116 299.13C527.608 301.167 531.392 302.747 535.467 303.786L535.425 303.828Z" fill="#0F183E" fill-opacity="0.37" style="mix-blend-mode:overlay"/>
<path fill-rule="evenodd" clip-rule="evenodd" d="M535.425 303.828C536.007 306.115 537.047 308.193 538.834 310.023L615.96 385.485L616.168 385.735C618.164 387.938 619.411 390.017 620.243 392.304C621.033 394.591 621.323 396.878 621.323 399.497V409.974L610.597 413.425V399.497C610.597 397.917 610.472 396.711 610.181 395.755C609.89 394.923 609.349 394.05 608.476 393.052L531.35 317.548C527.65 313.848 525.779 309.649 524.864 305.2C524.449 303.204 524.241 301.167 524.116 299.13C527.608 301.167 531.392 302.747 535.467 303.786L535.425 303.828Z" fill="#A130B7" fill-opacity="0.19" style="mix-blend-mode:overlay"/>
<path fill-rule="evenodd" clip-rule="evenodd" d="M641.945 212.4C654.211 212.4 662.318 224.124 659.99 238.552C657.703 252.979 645.854 264.704 633.588 264.704C621.323 264.704 613.257 252.979 615.544 238.552C617.872 224.124 629.68 212.4 641.945 212.4Z" fill="#0F183E" fill-opacity="0.37" style="mix-blend-mode:overlay"/>
<path fill-rule="evenodd" clip-rule="evenodd" d="M641.945 212.4C654.211 212.4 662.318 224.124 659.99 238.552C657.703 252.979 645.854 264.704 633.588 264.704C621.323 264.704 613.257 252.979 615.544 238.552C617.872 224.124 629.68 212.4 641.945 212.4Z" fill="#A130B7" fill-opacity="0.19" style="mix-blend-mode:overlay"/>
<path fill-rule="evenodd" clip-rule="evenodd" d="M642.736 216.266C645.397 216.391 647.767 217.181 649.763 218.511L667.599 231.358C673.753 234.851 676.954 243 675.083 252.355C672.672 264.496 662.61 273.934 652.59 273.518C649.763 273.393 647.268 272.478 645.148 271.023L626.937 257.968C621.282 254.268 618.413 246.368 620.201 237.429C622.613 225.288 632.674 215.85 642.694 216.266H642.736Z" fill="#0F183E" fill-opacity="0.37" style="mix-blend-mode:overlay"/>
<path fill-rule="evenodd" clip-rule="evenodd" d="M642.736 216.266C645.397 216.391 647.767 217.181 649.763 218.511L667.599 231.358C673.753 234.851 676.954 243 675.083 252.355C672.672 264.496 662.61 273.934 652.59 273.518C649.763 273.393 647.268 272.478 645.148 271.023L626.937 257.968C621.282 254.268 618.413 246.368 620.201 237.429C622.613 225.288 632.674 215.85 642.694 216.266H642.736Z" fill="#A130B7" fill-opacity="0.19" style="mix-blend-mode:overlay"/>
<path fill-rule="evenodd" clip-rule="evenodd" d="M661.362 229.612C671.383 230.07 677.495 240.256 675.083 252.355C672.672 264.495 662.61 273.975 652.59 273.518C642.57 273.06 636.458 262.874 638.869 250.775C641.281 238.634 651.342 229.155 661.362 229.612Z" fill="#0F183E" fill-opacity="0.37" style="mix-blend-mode:overlay"/>
<path fill-rule="evenodd" clip-rule="evenodd" d="M661.362 229.612C671.383 230.07 677.495 240.256 675.083 252.355C672.672 264.495 662.61 273.975 652.59 273.518C642.57 273.06 636.458 262.874 638.869 250.775C641.281 238.634 651.342 229.155 661.362 229.612Z" fill="#A130B7" fill-opacity="0.19" style="mix-blend-mode:overlay"/>
<path fill-rule="evenodd" clip-rule="evenodd" d="M431.939 274.349C445.077 274.349 452.977 288.278 449.568 305.449C446.158 322.62 432.771 336.549 419.632 336.549C406.494 336.549 398.594 322.62 402.003 305.449C405.413 288.278 418.801 274.349 431.939 274.349Z" fill="#0F183E" fill-opacity="0.37" style="mix-blend-mode:overlay"/>
<path fill-rule="evenodd" clip-rule="evenodd" d="M431.939 274.349C445.077 274.349 452.977 288.278 449.568 305.449C446.158 322.62 432.771 336.549 419.632 336.549C406.494 336.549 398.594 322.62 402.003 305.449C405.413 288.278 418.801 274.349 431.939 274.349Z" fill="#A130B7" fill-opacity="0.19" style="mix-blend-mode:overlay"/>
<path fill-rule="evenodd" clip-rule="evenodd" d="M431.773 281.792C441.419 282.54 446.409 293.683 442.916 306.613C439.424 319.544 428.738 329.439 419.051 328.691C409.405 327.943 404.415 316.8 407.908 303.869C411.4 290.939 422.086 281.043 431.773 281.792Z" fill="#0F183E" fill-opacity="0.37" style="mix-blend-mode:overlay"/>
<path fill-rule="evenodd" clip-rule="evenodd" d="M431.773 281.792C441.419 282.54 446.409 293.683 442.916 306.613C439.424 319.544 428.738 329.439 419.051 328.691C409.405 327.943 404.415 316.8 407.908 303.869C411.4 290.939 422.086 281.043 431.773 281.792Z" fill="#A130B7" fill-opacity="0.19" style="mix-blend-mode:overlay"/>
<path fill-rule="evenodd" clip-rule="evenodd" d="M681.153 113.529L681.694 110.369L686.517 109.122C689.386 108.332 691.922 109.829 691.922 112.905V181.549C691.839 185.582 691.672 187.952 688.221 189.574C672.006 197.099 631.011 207.992 615.544 209.863L611.47 201.132L681.195 113.529H681.153Z" fill="#0F183E" fill-opacity="0.37" style="mix-blend-mode:overlay"/>
<path fill-rule="evenodd" clip-rule="evenodd" d="M681.153 113.529L681.694 110.369L686.517 109.122C689.386 108.332 691.922 109.829 691.922 112.905V181.549C691.839 185.582 691.672 187.952 688.221 189.574C672.006 197.099 631.011 207.992 615.544 209.863L611.47 201.132L681.195 113.529H681.153Z" fill="#A130B7" fill-opacity="0.19" style="mix-blend-mode:overlay"/>
<path fill-rule="evenodd" clip-rule="evenodd" d="M614.505 133.777V201.589C636.333 197.972 658.951 191.777 678.783 183.669C681.444 182.588 681.694 180.468 682.192 177.682C685.352 160.968 684.77 135.648 684.271 118.227C684.188 114.693 683.44 111.741 682.109 110.286L619.827 125.919C615.877 126.958 614.505 129.162 614.505 133.735V133.777Z" fill="#0F183E" fill-opacity="0.37" style="mix-blend-mode:overlay"/>
<path fill-rule="evenodd" clip-rule="evenodd" d="M614.505 133.777V201.589C636.333 197.972 658.951 191.777 678.783 183.669C681.444 182.588 681.694 180.468 682.192 177.682C685.352 160.968 684.77 135.648 684.271 118.227C684.188 114.693 683.44 111.741 682.109 110.286L619.827 125.919C615.877 126.958 614.505 129.162 614.505 133.735V133.777Z" fill="#A130B7" fill-opacity="0.19" style="mix-blend-mode:overlay"/>
<g opacity="0.15">
<path fill-rule="evenodd" clip-rule="evenodd" d="M614.505 150.865V168.827L653.296 117.562L636.541 121.761L614.547 150.865H614.505ZM614.505 180.926L664.605 114.693L681.361 110.494L614.505 198.887V180.926ZM639.493 196.392L684.687 136.646C684.729 142.633 684.687 148.87 684.479 154.898L656.747 191.569C651.093 193.316 645.314 194.937 639.493 196.392Z" fill="#0F183E" fill-opacity="0.37" style="mix-blend-mode:overlay"/>
<path fill-rule="evenodd" clip-rule="evenodd" d="M614.505 150.865V168.827L653.296 117.562L636.541 121.761L614.547 150.865H614.505ZM614.505 180.926L664.605 114.693L681.361 110.494L614.505 198.887V180.926ZM639.493 196.392L684.687 136.646C684.729 142.633 684.687 148.87 684.479 154.898L656.747 191.569C651.093 193.316 645.314 194.937 639.493 196.392Z" fill="#A130B7" fill-opacity="0.19" style="mix-blend-mode:overlay"/>
</g>
<path fill-rule="evenodd" clip-rule="evenodd" d="M554.967 137.685C565.777 137.685 575.256 140.762 582.948 146.208C584.32 147.165 585.651 148.246 586.898 149.368L612.967 171.321C627.186 184.293 633.34 206.869 627.394 232.523C618.081 272.769 582.491 305.366 547.898 305.366C538.627 305.366 530.394 303.037 523.451 298.838C514.47 293.433 505.365 288.278 496.259 283.039C493.723 281.625 491.312 280.004 489.067 278.174C473.184 264.994 466.074 240.838 472.477 213.272C482.165 171.529 519.044 137.685 554.925 137.685H554.967Z" fill="#0F183E" fill-opacity="0.37" style="mix-blend-mode:overlay"/>
<path fill-rule="evenodd" clip-rule="evenodd" d="M554.967 137.685C565.777 137.685 575.256 140.762 582.948 146.208C584.32 147.165 585.651 148.246 586.898 149.368L612.967 171.321C627.186 184.293 633.34 206.869 627.394 232.523C618.081 272.769 582.491 305.366 547.898 305.366C538.627 305.366 530.394 303.037 523.451 298.838C514.47 293.433 505.365 288.278 496.259 283.039C493.723 281.625 491.312 280.004 489.067 278.174C473.184 264.994 466.074 240.838 472.477 213.272C482.165 171.529 519.044 137.685 554.925 137.685H554.967Z" fill="#A130B7" fill-opacity="0.19" style="mix-blend-mode:overlay"/>
<path fill-rule="evenodd" clip-rule="evenodd" d="M581.7 159.638C616.251 159.638 636.748 192.276 627.393 232.481C618.08 272.728 582.49 305.324 547.898 305.324C513.305 305.324 492.849 272.686 502.204 232.481C511.518 192.234 547.108 159.638 581.7 159.638Z" fill="#0F183E" fill-opacity="0.37" style="mix-blend-mode:overlay"/>
<path fill-rule="evenodd" clip-rule="evenodd" d="M581.7 159.638C616.251 159.638 636.748 192.276 627.393 232.481C618.08 272.728 582.49 305.324 547.898 305.324C513.305 305.324 492.849 272.686 502.204 232.481C511.518 192.234 547.108 159.638 581.7 159.638Z" fill="#A130B7" fill-opacity="0.19" style="mix-blend-mode:overlay"/>
<path fill-rule="evenodd" clip-rule="evenodd" d="M507.693 242.127C508.026 239.425 508.525 236.681 509.19 233.853C514.72 209.988 530.311 189.033 549.187 177.059C565.278 179.013 574.383 195.27 569.809 215.019C564.945 236.099 546.277 253.145 528.191 253.145C519.21 253.145 512.017 248.946 507.693 242.086V242.127Z" fill="#0F183E" fill-opacity="0.37" style="mix-blend-mode:overlay"/>
<path fill-rule="evenodd" clip-rule="evenodd" d="M507.693 242.127C508.026 239.425 508.525 236.681 509.19 233.853C514.72 209.988 530.311 189.033 549.187 177.059C565.278 179.013 574.383 195.27 569.809 215.019C564.945 236.099 546.277 253.145 528.191 253.145C519.21 253.145 512.017 248.946 507.693 242.086V242.127Z" fill="#A130B7" fill-opacity="0.19" style="mix-blend-mode:overlay"/>
<path fill-rule="evenodd" clip-rule="evenodd" d="M508.4 237.637C508.649 236.389 508.899 235.142 509.19 233.853C514.512 210.861 529.147 190.613 547.108 178.431C554.592 184.044 558.001 194.895 555.091 207.368C550.85 225.579 534.76 240.381 519.085 240.381C515.052 240.381 511.435 239.383 508.4 237.637Z" fill="#0F183E" fill-opacity="0.37" style="mix-blend-mode:overlay"/>
<path fill-rule="evenodd" clip-rule="evenodd" d="M508.4 237.637C508.649 236.389 508.899 235.142 509.19 233.853C514.512 210.861 529.147 190.613 547.108 178.431C554.592 184.044 558.001 194.895 555.091 207.368C550.85 225.579 534.76 240.381 519.085 240.381C515.052 240.381 511.435 239.383 508.4 237.637Z" fill="#A130B7" fill-opacity="0.19" style="mix-blend-mode:overlay"/>
<path fill-rule="evenodd" clip-rule="evenodd" d="M440.297 36.4445C439.632 38.066 439.341 39.8538 439.341 41.7664V91.7838C439.341 93.9874 439.05 98.6024 441.42 99.725L443.498 100.764L510.271 82.7199C514.554 81.6805 519.21 78.8948 519.169 75.9428C519.169 74.446 517.09 72.6167 514.928 71.5772L440.297 36.4029V36.4445Z" fill="#0F183E" fill-opacity="0.37" style="mix-blend-mode:overlay"/>
<path fill-rule="evenodd" clip-rule="evenodd" d="M440.297 36.4445C439.632 38.066 439.341 39.8538 439.341 41.7664V91.7838C439.341 93.9874 439.05 98.6024 441.42 99.725L443.498 100.764L510.271 82.7199C514.554 81.6805 519.21 78.8948 519.169 75.9428C519.169 74.446 517.09 72.6167 514.928 71.5772L440.297 36.4029V36.4445Z" fill="#A130B7" fill-opacity="0.19" style="mix-blend-mode:overlay"/>
<g opacity="0.15">
<path fill-rule="evenodd" clip-rule="evenodd" d="M509.647 231.94C515.551 208.907 530.768 188.742 549.187 177.1C549.769 177.183 550.351 177.266 550.933 177.391L509.647 231.94ZM556.463 179.137L508.192 242.917C509.772 245.245 511.726 247.199 513.971 248.821L563.115 183.836C561.203 181.881 558.957 180.302 556.463 179.137ZM570.183 197.514L528.066 253.145H528.149C532.14 253.145 536.173 252.313 540.081 250.775L570.557 210.487C571.181 205.871 570.973 201.464 570.142 197.514H570.183Z" fill="#0F183E" fill-opacity="0.37" style="mix-blend-mode:overlay"/>
<path fill-rule="evenodd" clip-rule="evenodd" d="M509.647 231.94C515.551 208.907 530.768 188.742 549.187 177.1C549.769 177.183 550.351 177.266 550.933 177.391L509.647 231.94ZM556.463 179.137L508.192 242.917C509.772 245.245 511.726 247.199 513.971 248.821L563.115 183.836C561.203 181.881 558.957 180.302 556.463 179.137ZM570.183 197.514L528.066 253.145H528.149C532.14 253.145 536.173 252.313 540.081 250.775L570.557 210.487C571.181 205.871 570.973 201.464 570.142 197.514H570.183Z" fill="#A130B7" fill-opacity="0.19" style="mix-blend-mode:overlay"/>
</g>
<path fill-rule="evenodd" clip-rule="evenodd" d="M582.782 164.087C586.69 164.087 590.39 164.503 593.924 165.334C604.901 167.87 613.881 174.232 620.076 183.171C626.23 192.027 629.639 203.46 629.639 216.308C629.639 222.087 628.932 228.157 627.477 234.435C623.028 253.519 612.385 270.816 598.706 283.289C584.944 295.887 568.105 303.662 551.474 303.662C547.566 303.662 543.865 303.246 540.331 302.414C529.355 299.878 520.374 293.517 514.179 284.578C508.026 275.722 504.616 264.288 504.616 251.441C504.616 245.661 505.323 239.591 506.778 233.313C511.227 214.229 521.871 196.933 535.55 184.46C549.312 171.862 566.151 164.087 582.782 164.087ZM592.843 170.116C589.683 169.367 586.316 168.993 582.782 168.993C567.398 168.993 551.723 176.269 538.876 188.077C525.904 199.926 515.801 216.308 511.56 234.435C510.188 240.339 509.523 246.035 509.523 251.482C509.523 263.332 512.641 273.768 518.212 281.792C523.742 289.733 531.683 295.346 541.412 297.633C544.572 298.381 547.94 298.755 551.474 298.755C566.857 298.755 582.532 291.479 595.38 279.671C608.352 267.822 618.455 251.441 622.696 233.313C624.068 227.409 624.733 221.713 624.733 216.266C624.733 204.458 621.615 193.981 616.043 185.915C610.514 177.974 602.572 172.361 592.843 170.074V170.116Z" fill="#0F183E" fill-opacity="0.37" style="mix-blend-mode:overlay"/>
<path fill-rule="evenodd" clip-rule="evenodd" d="M582.782 164.087C586.69 164.087 590.39 164.503 593.924 165.334C604.901 167.87 613.881 174.232 620.076 183.171C626.23 192.027 629.639 203.46 629.639 216.308C629.639 222.087 628.932 228.157 627.477 234.435C623.028 253.519 612.385 270.816 598.706 283.289C584.944 295.887 568.105 303.662 551.474 303.662C547.566 303.662 543.865 303.246 540.331 302.414C529.355 299.878 520.374 293.517 514.179 284.578C508.026 275.722 504.616 264.288 504.616 251.441C504.616 245.661 505.323 239.591 506.778 233.313C511.227 214.229 521.871 196.933 535.55 184.46C549.312 171.862 566.151 164.087 582.782 164.087ZM592.843 170.116C589.683 169.367 586.316 168.993 582.782 168.993C567.398 168.993 551.723 176.269 538.876 188.077C525.904 199.926 515.801 216.308 511.56 234.435C510.188 240.339 509.523 246.035 509.523 251.482C509.523 263.332 512.641 273.768 518.212 281.792C523.742 289.733 531.683 295.346 541.412 297.633C544.572 298.381 547.94 298.755 551.474 298.755C566.857 298.755 582.532 291.479 595.38 279.671C608.352 267.822 618.455 251.441 622.696 233.313C624.068 227.409 624.733 221.713 624.733 216.266C624.733 204.458 621.615 193.981 616.043 185.915C610.514 177.974 602.572 172.361 592.843 170.074V170.116Z" fill="#A130B7" fill-opacity="0.19" style="mix-blend-mode:overlay"/>
</svg>
